<?xml version="1.0" encoding="UTF-8"?>
<svg id="Layer_1" data-name="Layer 1" xmlns="http://www.w3.org/2000/svg" viewBox="0 0 187.92 122.73">
  <defs>
    <style>
      .cls-1 {
        fill: #fff;
      }
    </style>
  </defs>
  <path class="cls-1" d="M103.98,62.44v14.49c0,1.31-1.04,2.34-2.32,2.34h-17.35c-1.62,0-3.23,0-4.85,0v-23.3c0-2.58-2.09-4.68-4.68-4.68H28.18c-2.58,0-4.68,2.09-4.68,4.68v45.56c-.03.17-.09.53-.19.98-3.09,13.67-20.88,22.15-23.12,19.85-.23-.24-.21-1.6-.16-4.33.03-1.56.1-2.87.16-3.84V0h6.03c9.55,0,17.29,7.74,17.29,17.29v6.01c0,2.58,2.09,4.68,4.68,4.68h46.68l5.8,6.86c7.77,9.2,15.54,18.4,23.32,27.61Z"/>
  <path class="cls-1" d="M187.92,75.58v26.03c0,2.09-2.51,3.13-3.98,1.66-18.99-23.6-37.97-47.21-56.96-70.81-.73-.85-2.63-3.19-1.91-4.48.68-1.21,3.34-.89,4.33-.78,4.79.53,13.81.79,28.22.78,1.28,0,2.32-1.07,2.32-2.34s-1.04-2.32-2.32-2.32h-51.29c-1.29,0-2.34,1.05-2.34,2.34v9.12l-1.2-1.43-21.89-25.89-.84-1c-.38-.45-.59-1.02-.59-1.61h0c0-2.68,2.17-4.85,4.85-4.85h77.61c11.77,0,21.33,9.55,21.33,21.35v16.93c0,7.19-5.82,13.02-13.02,13.02-1.41,0-2.34,1.16-2.34,2.36s.89,2.4,3.21,2.64c6.13,7.03,10.68,12.26,16.81,19.29Z"/>
</svg>